<?xml version="1.0" encoding="UTF-8"?>
<svg id="Capa_1" xmlns="http://www.w3.org/2000/svg" version="1.1" viewBox="0 0 612 792">
  <!-- Generator: Adobe Illustrator 29.2.1, SVG Export Plug-In . SVG Version: 2.1.0 Build 116)  -->
  <defs>
    <style>
      .st0 {
        fill: #2f8b57;
      }
    </style>
  </defs>
  <path class="st0" d="M396.99,211.83c27.02,25.42,43.26,63.7,36.56,101.04-2.28,12.73-8.26,24.41-12.62,36.2,8.27,1.84,17.1,7.05,24.15,11.75,61.54,41.01,63.22,145.6,21.7,201.52-39.81,53.61-138.46,69.21-200.28,57.07-32.61-6.4-26.92-35.06-37.84-59.82-1.78-1.33-19.88-3.09-23.66-3.41-12.36-1.04-42.17.44-50.5-9.51-8.57-10.25-12.52-46.05-15.11-60.19-10.34-56.36-19.44-117.11-22.09-174.41-2.24-48.55-2.98-80.81,40.68-108.85,69.2-44.44,176.26-50.43,238.99,8.61ZM365.17,231.9c-48.66-37.11-120.79-34.47-173.53-6.81-13.71,7.19-33.89,18.63-37.04,34.74-5.63,28.9.77,87.12,3.96,118.07,4.27,41.48,11.72,94.81,22.87,134.8,1.15,4.12,2.29,5.39,6.46,6.49,10.32,2.71,21.51.57,31.84,2.86-5.55-22.47-11.2-45.11-14.95-67.99-6.55-39.95-15.59-103.88-12.15-143.25,4.67-53.45,69.64-72.76,111.72-46.92,28.24,17.35,36.17,53.3,32.9,84.47-1.22,11.67-7.36,22.22-9.27,33.67,56.21,6.56,92.92,59.19,72.35,114.12-15.95,42.59-58.73,58.87-101.32,63.41-10.25,1.09-20.71,1.47-31.03,1.33l6.7,22.39c4.52.69,9.3,2.05,13.84,2.36,89.71,6.1,174.62-18.65,170.12-124.23-1.89-44.33-17.95-70.77-61.22-83.5-7.04-2.07-14.97-1.15-20.8-6.85-.74-.73-4.59-6.69-4.82-7.54-3.95-14.69,9.38-20.31,16.46-31.22,22.79-35.14,8.03-76.65-23.1-100.39ZM286.39,375.73c16.7-17.25,21-48.55,10.08-69.85-12.6-24.59-62.73-23.55-68.23,6.41-1.85,10.09.24,32.04.92,43.25,2.9,47.81,11.98,119.1,26.63,164.27.38,1.17,1.31,4.36,2.4,4.63,28.31.48,58.45-.27,84.17-13.33,10.79-5.48,20.45-15.79,24.5-27.27,15.86-44.85-25.4-72.65-66.56-67.73-4.08.49-8.33,2.95-13.05,3.41-9.45.94-17.52-.38-21.82-9.65-8.75-18.83,11.09-23.95,20.97-34.15Z"/>
</svg>